<svg id="Layer_1" enable-background="new 0 0 511.5 511.5" height="512" viewBox="0 0 511.5 511.5" width="512" xmlns="http://www.w3.org/2000/svg"><g><path d="m223.5 167.75h80c26.51 0 48-21.49 48-48 0-26.51-21.49-48-48-48h-80" fill="#fff"/><path d="m341.681 90.671c1.176 4.16 1.819 8.543 1.819 13.079 0 26.51-21.49 48-48 48h-72v16h80c26.51 0 48-21.49 48-48 0-10.934-3.663-21.009-9.819-29.079z" fill="#c8d1da"/><path d="m351.5 103.75h160v32h-160z" fill="#fff"/><path d="m351.5 119.75h160v16h-160z" fill="#c8d1da"/><path d="m351.5 135.75h13.984c1.316-5.114 2.016-10.475 2.016-16s-.7-10.886-2.016-16h-13.984z" fill="#c8d1da"/><path d="m191.5 295.75v-224c0-8.837 7.163-16 16-16 8.837 0 16 7.163 16 16v224" fill="#f0d5b3"/><path d="m207.5 55.75c-2.918 0-5.645.794-8 2.158 4.778 2.768 8 7.923 8 13.842v224h16v-224c0-8.837-7.163-16-16-16z" fill="#e8bc85"/><path d="m223.5 295.75v-224c0-8.837 7.163-16 16-16 8.837 0 16 7.163 16 16v224" fill="#f0d5b3"/><path d="m239.5 55.75c-2.918 0-5.645.794-8 2.158 4.778 2.768 8 7.923 8 13.842v224h16v-224c0-8.837-7.163-16-16-16z" fill="#e8bc85"/><path d="m159.5 295.75v-224c0-8.837 7.163-16 16-16 8.837 0 16 7.163 16 16v224" fill="#f0d5b3"/><path d="m175.5 55.75c-2.918 0-5.645.794-8 2.158 4.778 2.768 8 7.923 8 13.842v224h16v-224c0-8.837-7.163-16-16-16z" fill="#e8bc85"/><path d="m159.5 268.412v27.338h96v-32c-23.798 0-45.858 7.428-64 20.084-9.662-6.74-20.444-11.979-32-15.422z" fill="#e8bc85"/><path d="m31.5 375.75c0-53.019 42.981-96 96-96s96 42.981 96 96" fill="#f0d5b3"/><path d="m178.508 294.415c-21.558 20.413-35.008 49.302-35.008 81.335h80c0-34.276-17.967-64.351-44.992-81.335z" fill="#e8bc85"/><path d="m95.5 375.75c0-17.673 14.327-32 32-32s32 14.327 32 32" fill="#ff6a47"/><path d="m146.482 349.99c-1.947 8.271-2.982 16.894-2.982 25.76h16c0-10.566-5.123-19.932-13.018-25.76z" fill="#d03582"/><path d="m287.5 375.75c0-53.019 42.981-96 96-96s96 42.981 96 96" fill="#f0d5b3"/><g fill="#e8bc85"><path d="m332.492 294.415c-27.026 16.984-44.992 47.059-44.992 81.335h80c0-32.033-13.45-60.922-35.008-81.335z"/><path d="m383.5 311.75c-2.711 0-5.377.188-8 .516 31.568 3.939 56 30.85 56 63.484h16c0-35.346-28.654-64-64-64z"/><path d="m383.5 279.75c-2.695 0-5.362.117-8 .334 49.276 4.066 88 45.341 88 95.666h16c0-53.019-42.981-96-96-96z"/></g><path d="m351.5 375.75c0-17.673 14.327-32 32-32s32 14.327 32 32" fill="#ff6a47"/><path d="m351.5 375.75h16c0-8.865-1.035-17.489-2.982-25.76-7.895 5.828-13.018 15.194-13.018 25.76z" fill="#d03582"/><path d="m159.5 375.75c0-53.019 42.981-96 96-96s96 42.981 96 96" fill="#f0d5b3"/><path d="m191.5 375.75c0-35.346 28.654-64 64-64s64 28.654 64 64" fill="#f0d5b3"/><path d="m255.5 311.75c-2.711 0-5.377.188-8 .516 31.568 3.939 56 30.85 56 63.484h16c0-35.346-28.654-64-64-64z" fill="#e8bc85"/><path d="m255.5 279.75c-2.695 0-5.362.117-8 .334 49.276 4.066 88 45.341 88 95.666h16c0-53.019-42.981-96-96-96z" fill="#e8bc85"/><path d="m223.5 375.75c0-17.673 14.327-32 32-32s32 14.327 32 32" fill="#ff6a47"/><path d="m255.5 343.75c-2.762 0-5.443.35-8 1.008 13.802 3.552 24 16.081 24 30.992h16c0-17.673-14.327-32-32-32z" fill="#d03582"/><path d="m479.5 407.75-48 48h-352l-48-48" fill="#c6fff6"/><path d="m479.5 407.75-16 16h-416l-16-16z" fill="#a4d7f5"/><path d="m455.5 407.75-48 48h24l48-48z" fill="#a4d7f5"/><path d="m7.5 375.75h496v32h-496z" fill="#87bcc4"/><path d="m487.5 375.75h16v32h-16z" fill="#5fa6b0"/><g><path d="m511.5 96.25h-157.724c-8.864-18.889-28.067-32-50.276-32h-41.727c-3.137-9.292-11.936-16-22.273-16-6.175 0-11.802 2.394-16 6.303-4.198-3.909-9.825-6.303-16-6.303s-11.802 2.394-16 6.303c-4.198-3.909-9.825-6.303-16-6.303-12.958 0-23.5 10.542-23.5 23.5v203.436c-7.959-1.937-16.179-2.936-24.5-2.936-54.548 0-99.375 42.417-103.231 96h-24.269v47h28.394l48 48h358.213l48-48h28.393v-47h-24.269c-3.855-53.583-48.682-96-103.231-96-18.195 0-36.092 4.79-51.755 13.851l7.511 12.984c13.384-7.743 28.684-11.835 44.245-11.835 46.273 0 84.365 35.698 88.185 81h-17.076c-3.76-35.914-34.216-64-71.109-64-15.226 0-29.964 4.841-42.152 13.743-18.612-27.575-50.148-45.743-85.848-45.743-8.438 0-16.643 1.015-24.5 2.929v-203.429c0-4.687 3.813-8.5 8.5-8.5s8.5 3.813 8.5 8.5v184h15v-112.5h40.5v-15h-40.501v-17h40.5v-15h-40.5v-17h40.5c22.332 0 40.5 18.168 40.5 40.5s-18.168 40.5-40.5 40.5h-24v15h24c22.208 0 41.411-13.111 50.276-32h157.724v-15h-153.15c.428-2.772.65-5.61.65-8.5s-.222-5.728-.65-8.5h153.15zm-384 191c19.106 0 37.589 6.156 52.792 17.465-3.895 4.122-7.456 8.562-10.64 13.278-12.189-8.903-26.926-13.743-42.152-13.743-36.893 0-67.349 28.086-71.109 64h-17.076c3.819-45.303 41.912-81 88.185-81zm0 49c-19.217 0-35.272 13.794-38.786 32h-17.218c3.68-27.622 27.392-49 56.004-49 12.59 0 24.755 4.188 34.632 11.856-2.61 5.438-4.76 11.137-6.397 17.047-7.176-7.34-17.183-11.903-28.235-11.903zm23.326 32h-46.652c3.175-9.852 12.431-17 23.326-17s20.151 7.148 23.326 17zm277.568 80h-345.788l-33-33h411.787zm67.606-48h-481v-17h481zm-201.714-32c-3.514-18.206-19.569-32-38.786-32s-35.272 13.794-38.786 32h-17.219c3.68-27.622 27.392-49 56.004-49s52.325 21.378 56.004 49zm-15.46 0h-46.652c3.175-9.852 12.431-17 23.326-17s20.151 7.148 23.326 17zm81.348 0c3.175-9.852 12.431-17 23.326-17s20.151 7.148 23.326 17zm23.326-49c28.612 0 52.325 21.378 56.004 49h-17.219c-3.514-18.206-19.569-32-38.786-32-11.052 0-21.059 4.563-28.235 11.904-1.637-5.91-3.786-11.61-6.397-17.047 9.878-7.669 22.043-11.857 34.633-11.857zm-39.815 49h-17.076c-3.76-35.914-34.216-64-71.109-64s-67.349 28.086-71.109 64h-17.076c3.819-45.303 41.911-81 88.185-81 46.273 0 84.366 35.697 88.185 81zm-127.685-88.167c-8.834 3.661-17.056 8.512-24.464 14.351-7.524-5.929-15.786-10.747-24.536-14.36v-208.324c0-4.687 3.813-8.5 8.5-8.5s8.5 3.813 8.5 8.5v200h15v-200c0-4.687 3.813-8.5 8.5-8.5s8.5 3.813 8.5 8.5z"/><path d="m279.5 192.25h16v15h-16z"/><path d="m311.5 192.25h16v15h-16z"/><path d="m343.5 192.25h16v15h-16z"/></g></g></svg>